<?xml version="1.0" standalone="no"?>
<!DOCTYPE svg PUBLIC "-//W3C//DTD SVG 20010904//EN"
 "http://www.w3.org/TR/2001/REC-SVG-20010904/DTD/svg10.dtd">
<svg version="1.0" xmlns="http://www.w3.org/2000/svg"
 width="300.000000pt" height="76.000000pt" viewBox="0 0 300.000000 76.000000"
 preserveAspectRatio="xMidYMid meet">
<metadata>
Created by potrace 1.10, written by Peter Selinger 2001-2011
</metadata>
<g transform="translate(0.000000,76.000000) scale(0.100000,-0.100000)"
fill="#000000" stroke="none">
<path d="M510 662 c-19 -2 -40 -8 -46 -13 -6 -5 -36 -7 -65 -4 -48 6 -57 3
-81 -18 -16 -13 -28 -31 -29 -38 0 -8 -5 0 -10 18 -11 38 -33 47 -109 44 -82
-3 -86 -9 -70 -133 16 -129 16 -130 23 -148 3 -8 8 -55 12 -104 7 -98 27 -161
56 -177 11 -5 48 -12 84 -14 56 -4 67 -2 90 18 24 21 31 45 34 118 0 14 12 39
26 55 l25 29 -1 -85 c0 -47 2 -93 6 -102 16 -40 116 -45 151 -7 14 15 20 17
32 7 22 -19 72 -33 123 -37 34 -2 58 4 94 23 l48 26 22 -20 c28 -26 107 -30
134 -6 18 17 21 17 52 0 21 -10 66 -19 119 -22 71 -4 93 -1 125 14 38 19 41
19 58 2 21 -22 49 -23 86 -4 25 13 31 13 50 -1 28 -19 115 -13 138 10 14 14
19 13 52 -4 41 -21 112 -23 139 -3 14 10 17 30 17 113 1 58 5 105 12 112 6 6
25 9 43 7 l33 -3 2 -103 c4 -142 7 -145 140 -139 56 2 109 8 119 14 18 10 50
7 71 -6 17 -11 135 -14 148 -3 23 17 71 21 91 6 11 -8 42 -14 70 -14 40 0 57
5 80 25 l29 25 25 -25 c43 -43 152 -30 152 19 0 13 -25 94 -40 131 -29 73 -39
152 -22 180 4 6 8 15 9 20 1 6 14 46 29 89 19 56 24 84 17 95 -22 34 -145 40
-181 8 -15 -13 -20 -14 -36 -1 -27 19 -224 18 -247 -2 -16 -15 -49 -10 -49 7
0 5 -29 9 -64 9 -58 0 -67 -3 -86 -27 -17 -22 -21 -40 -20 -93 5 -216 0 -301
-16 -307 -37 -14 -44 22 -44 216 1 204 0 210 -60 211 -210 3 -354 -1 -366 -11
-11 -9 -21 -9 -40 0 -35 16 -100 14 -128 -4 -21 -14 -24 -14 -36 0 -18 22 -96
20 -116 -4 -16 -18 -17 -18 -56 1 -58 28 -206 28 -246 -1 l-29 -20 -20 26
c-17 24 -25 27 -74 25 -40 -2 -58 -8 -71 -23 -16 -19 -18 -19 -50 -3 -36 19
-168 26 -203 10 -34 -15 -49 -15 -65 -2 -20 18 -47 23 -90 18z m80 -77 l0 -55
-60 0 -60 0 0 55 0 55 60 0 60 0 0 -55z m460 0 l0 -55 -60 0 -60 0 0 48 c0 27
3 52 7 55 3 4 30 7 60 7 l53 0 0 -55z m-800 -190 c0 -126 2 -226 6 -223 3 4
23 107 43 230 l37 223 50 -4 c27 -1 50 -4 52 -6 2 -2 -16 -118 -39 -259 l-42
-256 -79 0 c-76 0 -79 1 -89 27 -5 15 -23 119 -40 232 -16 113 -32 221 -35
239 l-6 33 72 -3 72 -3 -2 -230z m616 211 c9 -13 14 -45 14 -89 0 -67 -1 -69
-22 -63 -13 3 -35 6 -50 6 -25 0 -28 4 -28 35 0 30 -3 35 -24 35 -29 0 -32 -6
-28 -69 l4 -49 74 -7 74 -7 0 -88 c0 -140 -8 -178 -41 -195 -41 -22 -127 -19
-166 5 l-33 20 0 86 c0 74 2 85 16 80 9 -3 29 -6 46 -6 29 0 30 -1 23 -40 -6
-36 -5 -40 13 -40 11 0 27 -3 36 -6 14 -5 16 4 16 59 l0 64 -69 7 -68 7 -7
127 c-8 157 -10 155 117 150 74 -2 91 -6 103 -22z m483 5 c20 -11 21 -17 21
-244 0 -171 -3 -238 -12 -250 -14 -17 -60 -22 -160 -19 -44 2 -63 7 -79 23
-22 22 -22 26 -15 242 4 122 12 229 17 238 5 10 19 20 31 23 38 8 174 -1 197
-13z m171 16 c0 -17 72 -352 77 -356 5 -6 -2 161 -14 292 l-6 67 44 0 c75 0
72 13 64 -274 l-8 -256 -63 0 c-73 0 -64 -20 -90 190 -25 202 -35 200 -30 -7
l5 -181 -40 -4 -39 -4 0 268 0 268 50 0 c28 0 50 -1 50 -3z m456 -13 c-3 -9
-6 -29 -6 -46 0 -30 0 -30 -50 -26 l-50 3 0 -64 0 -64 51 7 50 7 -3 -43 -3
-42 -53 3 -52 3 6 -114 c3 -62 7 -119 10 -125 2 -10 -15 -13 -66 -13 l-70 0 0
265 0 265 121 0 c106 0 120 -2 115 -16z m164 -203 l0 -219 50 -7 50 -7 0 -39
0 -39 -115 0 -115 0 0 265 0 265 65 0 65 0 0 -219z m237 211 c9 -6 10 -58 3
-222 -8 -195 -7 -217 8 -232 11 -10 26 -15 42 -12 l25 5 -3 235 -3 234 34 0
34 0 5 -232 c4 -176 3 -239 -7 -257 -19 -37 -80 -52 -164 -39 l-68 10 -16 46
c-22 60 -25 457 -4 465 19 8 101 7 114 -1z m303 -49 c7 -32 15 -73 19 -92 4
-19 12 -36 19 -39 9 -3 12 21 12 92 l0 96 81 0 c73 0 80 -2 74 -17 -4 -10 -25
-69 -46 -132 l-39 -114 45 -135 c24 -75 43 -137 42 -139 -2 -1 -28 1 -59 4
l-57 6 -20 77 c-12 42 -21 85 -21 96 -1 40 -17 -11 -30 -93 -14 -92 -23 -100
-104 -88 l-42 7 44 128 44 128 -44 136 -44 136 57 0 58 0 11 -57z m-720 -74
c0 -5 5 -7 11 -3 7 4 9 -2 7 -16 -4 -28 -37 -35 -64 -16 -15 12 -16 16 -5 30
15 18 51 22 51 5z m-1371 -200 l2 -200 -58 3 -58 3 -3 198 -2 197 58 0 59 0 2
-201z m461 1 l0 -200 -54 0 c-40 0 -55 4 -60 16 -3 9 -6 99 -6 200 l0 184 60
0 60 0 0 -200z m1542 124 c10 -22 7 -82 -9 -144 -8 -30 -10 -32 -17 -15 -9 23
-8 184 1 199 4 6 8 4 11 -4 2 -8 8 -25 14 -36z"/>
<path d="M1190 345 l0 -146 38 3 37 3 8 134 c5 73 6 135 4 138 -3 2 -24 7 -46
9 l-41 5 0 -146z m59 28 c0 -68 -7 -96 -20 -87 -6 3 -6 12 0 21 6 11 4 21 -5
31 -11 10 -12 18 -4 27 7 9 7 14 1 17 -15 5 -1 48 15 48 10 0 13 -16 13 -57z"/>
</g>
</svg>
